<svg xmlns="http://www.w3.org/2000/svg" xmlns:xlink="http://www.w3.org/1999/xlink" width="56" zoomAndPan="magnify" viewBox="0 0 42 42" height="56" preserveAspectRatio="xMidYMid meet" version="1.0"><defs><clipPath id="78ee03fba8"><path d="M 1.734375 1.246094 L 40.558594 1.246094 L 40.558594 40.070312 L 1.734375 40.070312 Z M 1.734375 1.246094 " clip-rule="nonzero"/></clipPath></defs><g clip-path="url(#78ee03fba8)"><path fill="#214f80" d="M 21.148438 1.246094 C 10.441406 1.246094 1.734375 9.953125 1.734375 20.65625 C 1.734375 31.363281 10.441406 40.070312 21.148438 40.070312 C 31.851562 40.070312 40.558594 31.363281 40.558594 20.65625 C 40.558594 9.953125 31.851562 1.246094 21.148438 1.246094 Z M 21.148438 37.230469 C 12.007812 37.230469 4.574219 29.796875 4.574219 20.65625 C 4.574219 11.519531 12.007812 4.085938 21.148438 4.085938 C 30.285156 4.085938 37.71875 11.519531 37.71875 20.65625 C 37.71875 29.796875 30.285156 37.230469 21.148438 37.230469 Z M 21.148438 5.980469 C 13.054688 5.980469 6.46875 12.566406 6.46875 20.65625 C 6.46875 28.75 13.054688 35.335938 21.148438 35.335938 C 29.238281 35.335938 35.824219 28.75 35.824219 20.65625 C 35.824219 12.566406 29.238281 5.980469 21.148438 5.980469 Z M 32.035156 21.605469 L 21.148438 21.605469 C 20.625 21.605469 20.199219 21.179688 20.199219 20.65625 L 20.199219 9.769531 C 20.199219 9.246094 20.625 8.820312 21.148438 8.820312 C 21.667969 8.820312 22.09375 9.246094 22.09375 9.769531 L 22.09375 19.710938 L 32.035156 19.710938 C 32.558594 19.710938 32.984375 20.136719 32.984375 20.65625 C 32.984375 21.179688 32.558594 21.605469 32.035156 21.605469 Z M 32.035156 21.605469 " fill-opacity="1" fill-rule="nonzero"/></g></svg>